<?xml version="1.0" encoding="UTF-8"?>
<svg version="1.1" xmlns="http://www.w3.org/2000/svg" width="1136" height="1136">
<path d="M0 0 C1.12581482 -0.00145523 2.25162964 -0.00291046 3.41156006 -0.00440979 C5.77472542 -0.00275962 8.13790252 0.00870177 10.50097656 0.02954102 C14.11309375 0.05862369 17.72375219 0.05010461 21.3359375 0.03710938 C23.64063211 0.04334396 25.94532211 0.0517327 28.25 0.0625 C29.8626474 0.05809654 29.8626474 0.05809654 31.50787354 0.05360413 C38.60755592 0.1429121 43.08422822 1.04363846 48.546875 5.87109375 C52.76470136 10.65889665 54.40776678 14.88447804 55.40605164 21.13037109 C55.60023436 22.26355711 55.60023436 22.26355711 55.79833996 23.41963577 C56.22636289 25.93057292 56.63977412 28.44369675 57.0534668 30.95703125 C57.35682804 32.75175497 57.6612652 34.54629712 57.96670818 36.34066772 C58.61113779 40.13303881 59.25033755 43.92623974 59.88598251 47.72009277 C60.82320812 53.30026416 61.78556928 58.87584335 62.75674438 64.45019531 C62.91444528 65.35570696 63.07214617 66.26121861 63.23462588 67.19417 C63.55609887 69.03990798 63.87759327 70.88564224 64.19910872 72.73137283 C67.60295568 92.30171282 70.93935885 111.88366298 74.26201344 131.46792603 C76.16312733 142.66831217 78.07819172 153.86599213 80.0246582 165.05859375 C81.74304986 174.93989977 83.43642809 184.82510624 85.09954375 194.71587181 C85.97530974 199.91902361 86.86321548 205.11940509 87.78144264 210.31524658 C88.63898326 215.16993043 89.4628998 220.02913006 90.26122856 224.89389038 C90.55922586 226.67297096 90.86943282 228.45005668 91.19280243 230.22470093 C93.62655256 243.6383548 93.62655256 243.6383548 91.68533897 248.33905029 C90.20554696 250.34905375 88.78325285 251.91820019 86.859375 253.49609375 C86.529375 253.82609375 86.199375 254.15609375 85.859375 254.49609375 C84.18445434 254.63143452 82.50390842 254.6978587 80.82397461 254.73657227 C79.74873032 254.76231827 78.67348602 254.78806427 77.56565857 254.81459045 C72.61883815 254.89867606 67.67217486 254.96467997 62.72485352 255.01098633 C60.11848588 255.04257572 57.51226085 255.09027579 54.90649414 255.15454102 C51.14935198 255.24598065 47.39480719 255.2846421 43.63671875 255.3125 C42.47808823 255.35065323 41.3194577 255.38880646 40.12571716 255.42811584 C34.31934254 255.41423398 30.57532165 254.98774136 26.15991211 251.02270508 C22.4509118 246.64672943 21.55214534 242.87621312 21.2734375 237.25390625 C21.20071625 236.40432343 21.127995 235.5547406 21.05307007 234.67941284 C20.82930913 231.99468323 20.65482627 229.30968492 20.484375 226.62109375 C20.28295209 223.91270071 20.07135641 221.20545438 19.85140991 218.49850464 C19.71827155 216.82119349 19.59757724 215.1428382 19.4906311 213.46365356 C19.32778113 209.01230696 19.32778113 209.01230696 16.859375 205.49609375 C13.94435233 205.20229548 13.94435233 205.20229548 10.48193359 205.26904297 C9.82815231 205.26875092 9.17437103 205.26845886 8.5007782 205.26815796 C6.33632204 205.2695531 4.17220864 205.28512255 2.0078125 205.30078125 C0.50851632 205.30451073 -0.9907823 205.30735801 -2.49008179 205.30935669 C-6.43899243 205.31699827 -10.38775629 205.33665115 -14.33660889 205.35876465 C-18.36501072 205.37921185 -22.39343624 205.38835599 -26.421875 205.3984375 C-34.32819241 205.41989664 -42.23439045 205.4540388 -50.140625 205.49609375 C-50.32152176 206.05428299 -50.50241852 206.61247223 -50.688797 207.18757629 C-53.11377567 214.57911702 -55.93534214 221.75912038 -58.90893555 228.94458008 C-59.52233691 230.43873781 -60.1261833 231.93685354 -60.72045898 233.4387207 C-61.59183357 235.63838389 -62.49357453 237.82337557 -63.40234375 240.0078125 C-63.65787521 240.67044601 -63.91340668 241.33307953 -64.17668152 242.01579285 C-66.48256179 247.40621424 -69.76787494 251.02311569 -75.140625 253.49609375 C-79.45168315 254.32634406 -83.65074276 254.33839891 -88.03125 254.29296875 C-89.25342224 254.29870911 -90.47559448 254.30444946 -91.73480225 254.31036377 C-94.3066189 254.31443199 -96.87849835 254.3034635 -99.45019531 254.27832031 C-103.39267239 254.24607701 -107.33108409 254.27811191 -111.2734375 254.31640625 C-113.77605072 254.31244332 -116.27866142 254.30475995 -118.78125 254.29296875 C-119.96044006 254.30511414 -121.13963013 254.31725952 -122.35455322 254.32977295 C-130.42150247 254.19044458 -130.42150247 254.19044458 -133.97558594 250.75878906 C-136.05786953 244.92734775 -133.61708588 240.96016035 -131.10546875 235.6171875 C-130.79563049 234.9461499 -130.48579224 234.2751123 -130.16656494 233.58374023 C-129.4946443 232.12941326 -128.82041375 230.67615174 -128.14413452 229.22384644 C-126.30287968 225.26802918 -124.48025911 221.30363514 -122.65625 217.33984375 C-122.27861008 216.52011581 -121.90097015 215.70038788 -121.5118866 214.8558197 C-117.70685751 206.58236721 -114.01015547 198.26233321 -110.328125 189.93359375 C-104.43334014 176.61285854 -98.4658956 163.32648603 -92.453125 150.05859375 C-90.83587229 146.48961288 -89.21863385 142.92062555 -87.6015625 139.3515625 C-87.21395752 138.49609329 -86.82635254 137.64062408 -86.42700195 136.75923157 C-83.12626937 129.47109804 -79.84652103 122.17378551 -76.578125 114.87109375 C-70.79419196 101.9478495 -64.98856211 89.0344733 -59.17504883 76.12451172 C-58.4070506 74.41895126 -57.63906566 72.71338481 -56.87109375 71.0078125 C-56.48707901 70.15497681 -56.10306427 69.30214111 -55.70741272 68.42346191 C-53.26264177 62.99259943 -50.82195485 57.55991918 -48.38414001 52.12593079 C-46.74092565 48.46335032 -45.09649538 44.80131632 -43.45199585 41.13931274 C-42.66934885 39.3955853 -41.88729241 37.65159266 -41.10586548 35.90731812 C-40.01742436 33.47788456 -38.92689191 31.04939952 -37.8359375 28.62109375 C-37.36206352 27.56115959 -37.36206352 27.56115959 -36.87861633 26.47981262 C-30.48152416 12.26262141 -30.48152416 12.26262141 -26.515625 8.24609375 C-25.92523438 7.6221875 -25.33484375 6.99828125 -24.7265625 6.35546875 C-17.0512332 0.83665191 -9.23212281 -0.09720088 0 0 Z M2.859375 74.49609375 C2.40723633 75.64158691 1.95509766 76.78708008 1.48925781 77.96728516 C-0.24744994 82.36676334 -1.98530653 86.76578722 -3.72320557 91.16479492 C-4.88784619 94.11405686 -6.05115328 97.06384236 -7.21435547 100.01367188 C-10.76129039 109.00116655 -14.32080402 117.98191927 -17.9765625 126.92578125 C-18.54337183 128.31816504 -19.11010646 129.71057925 -19.67675781 131.10302734 C-20.71548084 133.65453578 -21.76612589 136.20069546 -22.82324219 138.74462891 C-23.28118164 139.8691748 -23.73912109 140.9937207 -24.2109375 142.15234375 C-24.61070801 143.11978516 -25.01047852 144.08722656 -25.42236328 145.08398438 C-26.42368426 147.6032835 -26.42368426 147.6032835 -25.140625 150.49609375 C-20.19274186 150.57014112 -15.24517976 150.62464621 -10.296875 150.66088867 C-8.6128986 150.67599378 -6.92896165 150.69647921 -5.24511719 150.72241211 C-2.82737507 150.75872096 -0.41015208 150.77580222 2.0078125 150.7890625 C3.14070206 150.81228828 3.14070206 150.81228828 4.29647827 150.83598328 C6.64345581 150.87171685 6.64345581 150.87171685 9.859375 150.49609375 C12.32737597 146.79409229 11.96466459 144.33426929 11.64453125 140.09765625 C11.59337662 139.32040192 11.54222198 138.54314758 11.48951721 137.74234009 C10.63626179 125.43596156 9.44025076 113.15303411 8.296875 100.87109375 C8.06025003 98.30341276 7.82391978 95.73570458 7.58789062 93.16796875 C7.01511163 86.94369342 6.43871274 80.71976186 5.859375 74.49609375 C4.869375 74.49609375 3.879375 74.49609375 2.859375 74.49609375 Z " fill="#EA232A" transform="translate(340.140625,494.50390625)"/>
<path d="M0 0 C1.99941708 0.43801492 4.01419947 0.81004269 6.03710938 1.12207031 C13.41667088 2.45627449 17.31902383 5.04233119 22.16836548 10.73112488 C25.29245703 15.85692729 24.41915821 20.24210783 23.45996094 25.96533203 C23.2997345 27.17804779 23.13950806 28.39076355 22.97442627 29.64022827 C22.52301591 32.98948922 22.02795064 36.32667735 21.51278687 39.66635132 C20.97383361 43.22664503 20.4889458 46.79423824 20.00097656 50.36181641 C19.36433458 54.99903786 18.72333954 59.63541618 18.06054688 64.26898193 C16.35819917 76.22764087 14.90887138 88.2048822 13.55284882 100.20742416 C12.87104598 106.21945726 12.16974594 112.22925706 11.47063065 118.23929787 C10.89828325 123.17208978 10.3361847 128.10562606 9.79602051 133.04205322 C9.28147863 137.73268665 8.73399983 142.41840409 8.16307831 147.1024971 C7.95787674 148.83363448 7.76432414 150.56620031 7.58356476 152.30006027 C6.50729759 162.55996596 4.94533924 170.37996096 -3.05566406 177.64501953 C-7.17530119 180.92839437 -11.27762371 182.37203918 -16.24316406 184.02001953 C-17.15428955 184.32311035 -18.06541504 184.62620117 -19.00415039 184.93847656 C-54.49878741 196.2821543 -102.64158389 200.83563697 -137.11816406 183.39501953 C-152.97422899 174.06673737 -160.93034911 161.52320461 -165.77050781 144.06689453 C-174.08649916 109.34611314 -166.78923292 65.37986327 -148.23535156 34.98876953 C-134.74932672 14.30053071 -115.04245134 1.9660322 -91.05566406 -3.35498047 C-60.99596403 -9.287816 -29.65848001 -6.81263114 0 0 Z M-87.46972656 59.43408203 C-99.01625058 75.53096034 -103.29900027 98.11163171 -100.66503906 117.52392578 C-98.87397221 124.86041117 -94.49451359 130.63465506 -88.24707031 134.87158203 C-78.06838556 139.55596598 -65.29995469 136.50389134 -55.05566406 133.64501953 C-53.11963729 124.98153268 -52.00487985 116.22403699 -50.89160156 107.42626953 C-50.69294947 105.87590104 -50.49402093 104.32556795 -50.29483032 102.77526855 C-49.88092537 99.54820351 -49.46931405 96.32085772 -49.05957031 93.09326172 C-48.53383712 88.95233184 -48.00386733 84.81195832 -47.47240257 80.67176056 C-47.06296734 77.48069159 -46.65493866 74.28944417 -46.24742508 71.09812927 C-46.05230322 69.57023424 -45.85692825 68.0423715 -45.66129684 66.51454163 C-45.38958104 64.3895794 -45.11956828 62.26440811 -44.85009766 60.13916016 C-44.69624603 58.93022095 -44.54239441 57.72128174 -44.38388062 56.47570801 C-44.01727149 53.78884676 -44.01727149 53.78884676 -44.05566406 51.64501953 C-49.3637558 50.40526114 -54.62732606 49.21642353 -60.05566406 48.64501953 C-60.79300781 48.55607422 -61.53035156 48.46712891 -62.29003906 48.37548828 C-71.82449058 47.72265163 -81.1270523 52.34885078 -87.46972656 59.43408203 Z " fill="#EA232A" transform="translate(724.0556640625,560.35498046875)"/>
<path d="M0 0 C3.63336766 -0.00974354 7.26617751 -0.0408685 10.89941406 -0.07226562 C34.12735394 -0.17836882 55.39129647 2.96494879 73.02441406 19.47070312 C88.02865539 35.58742622 91.24986914 55.13308349 90.75750732 76.41375732 C90.43549293 84.26639796 89.30183301 92.02834824 88.20410156 99.80273438 C87.94074505 101.73680787 87.67807107 103.6709744 87.41601562 105.60522461 C86.51994916 112.15439596 85.58401025 118.6975913 84.64160156 125.24023438 C84.45821228 126.51672852 84.274823 127.79322266 84.08587646 129.10839844 C82.80701009 137.9998712 81.50740904 146.88817285 80.19153976 155.7742424 C79.89232794 157.79782186 79.59474553 159.82163597 79.2973938 161.8454895 C78.73667975 165.64609985 78.16719631 169.44528533 77.59472656 173.24414062 C77.42720383 174.3847998 77.25968109 175.52545898 77.08708191 176.70068359 C76.92621597 177.75473389 76.76535004 178.80878418 76.59960938 179.89477539 C76.393591 181.268843 76.393591 181.268843 76.18341064 182.67066956 C75.38941707 186.43623573 74.61804756 189.27043611 71.84410095 192.02549744 C69.18203158 193.49369943 67.43416177 193.63823188 64.40161133 193.67602539 C63.35695206 193.69516495 62.31229279 193.7143045 61.23597717 193.73402405 C59.55150734 193.73903175 59.55150734 193.73903175 57.83300781 193.74414062 C56.67413559 193.75412582 55.51526337 193.76411102 54.3212738 193.7743988 C51.87103853 193.78958295 49.42074126 193.79662451 46.97045898 193.79614258 C43.22112978 193.80270457 39.47444662 193.85719071 35.72558594 193.9140625 C33.34473562 193.92286448 30.96387273 193.92881875 28.58300781 193.93164062 C27.46205215 193.95319717 26.3410965 193.97475372 25.18617249 193.9969635 C17.80320597 193.93192894 17.80320597 193.93192894 14.79244995 192.13912964 C12.31493222 189.58195558 11.64710068 187.28280777 11.19897461 183.81347656 C11.30187018 182.28539951 11.4574838 180.76066445 11.64160156 179.24023438 C11.76934967 178.17341431 11.89709778 177.10659424 12.02871704 176.00744629 C12.55056513 172.0205071 13.1308912 168.04521186 13.72363281 164.06835938 C13.94113547 162.58077996 14.15814138 161.09312783 14.37467957 159.60540771 C14.94550928 155.69315255 15.52321445 151.78194281 16.10235596 147.87091064 C16.68026961 143.95948916 17.25139727 140.04707805 17.82324219 136.13476562 C21.11826785 113.6233433 21.11826785 113.6233433 22.60668945 103.91650391 C22.74608444 103.00439148 22.88547943 102.09227905 23.02909851 101.15252686 C23.27227058 99.56860591 23.51808541 97.98508627 23.76765442 96.40216064 C26.82409377 77.4269834 26.82409377 77.4269834 22.07910156 59.36523438 C15.62909346 53.74215039 7.82976337 52.10137644 -0.53417969 52.14257812 C-1.69111328 52.14580078 -2.84804688 52.14902344 -4.04003906 52.15234375 C-5.23822266 52.16072266 -6.43640625 52.16910156 -7.67089844 52.17773438 C-9.49717773 52.18450195 -9.49717773 52.18450195 -11.36035156 52.19140625 C-14.35975069 52.2031686 -17.35904932 52.21960611 -20.35839844 52.24023438 C-20.50760742 53.34004639 -20.65681641 54.4398584 -20.81054688 55.57299805 C-24.76440386 84.67948337 -28.81780854 113.77182242 -32.91418457 142.85855103 C-33.46126074 146.74316572 -34.00735344 150.62791668 -34.5526123 154.51278687 C-35.20394509 159.15262765 -35.85746826 163.7921548 -36.51267624 168.43144989 C-36.75701645 170.16384582 -37.00064127 171.89634281 -37.24351883 173.6289444 C-37.57846996 176.01715951 -37.91608863 178.40498275 -38.25439453 180.79272461 C-38.35202465 181.49313464 -38.44965477 182.19354467 -38.55024338 182.91517925 C-39.00051293 186.07387831 -39.49489759 189.16582773 -40.35839844 192.24023438 C-43.50725387 190.70259235 -46.55321318 189.01800267 -49.60839844 187.30273438 C-61.74588814 180.72892886 -73.73540521 178.19197128 -87.35839844 182.24023438 C-91.16701789 183.83296651 -94.78810864 185.73152825 -98.42480469 187.68164062 C-101.35839844 189.24023438 -101.35839844 189.24023438 -104.35839844 190.24023438 C-100.13387153 159.2677302 -95.67776947 128.32731276 -91.16583252 97.39553833 C-90.54690118 93.15023425 -89.93212257 88.90436119 -89.32098389 84.65792847 C-88.58469646 79.54366433 -87.83946105 74.43077424 -87.08811951 69.31870079 C-86.81123141 67.42520193 -86.53723098 65.53127785 -86.26655579 63.63688087 C-84.81400149 53.48676231 -83.10115618 43.4344073 -80.90185547 33.41699219 C-80.61375661 32.0660956 -80.61375661 32.0660956 -80.31983757 30.68790817 C-78.10282162 20.97798973 -74.70301073 13.96893494 -66.35839844 8.24023438 C-48.0848823 -2.49674686 -20.31216339 0.03291196 0 0 Z " fill="#EA232A" transform="translate(602.3583984375,272.759765625)"/>
<path d="M0 0 C1.48236963 0.00017939 1.48236963 0.00017939 2.99468613 0.0003624 C36.26398218 0.00543531 69.45886868 0.392221 102.6875 2.1875 C103.72038147 2.2431311 104.75326294 2.29876221 105.81744385 2.3560791 C126.0092932 3.4588524 146.18133006 4.82433465 166.3125 6.75 C168.14482178 6.92196899 168.14482178 6.92196899 170.01416016 7.09741211 C171.11550293 7.21093018 172.2168457 7.32444824 173.3515625 7.44140625 C174.29467285 7.53752197 175.2377832 7.6336377 176.20947266 7.73266602 C178.69710471 8.18926291 180.50244768 8.93748106 182.6875 10.1875 C173.39456002 10.96141493 164.10956105 11.33173648 154.7890625 11.58203125 C153.58254532 11.6144693 152.37602814 11.64690735 151.13294983 11.68032837 C148.55067995 11.74950713 145.96840963 11.81866958 143.38613892 11.88781738 C67.07692941 13.96616344 -9.09022176 19.35651971 -541.71499443 101.81185341 C-543.80456183 102.341737 -545.89473423 102.86916328 -547.98512268 103.39579773 C-549.36582577 103.74388114 -550.74651735 104.09201021 -552.12719727 104.44018555 C-552.80622636 104.61136493 -553.48525545 104.78254431 -554.18486118 104.95891094 C-557.50979386 105.79926118 -560.83174562 106.64912727 -564.14865112 107.5206604 C-590.20943063 114.35266844 -607.21577575 116.01079048 -631.1875 102.1875 C-632.35585493 101.52412472 -633.52489315 100.86195155 -634.69458008 100.20092773 C-636.47813819 99.19276189 -638.26123447 98.18386918 -640.04212952 97.17100525 C-645.98797893 93.79031117 -651.98887604 90.51303929 -658 87.25 C-658.94407715 86.73630859 -659.8881543 86.22261719 -660.86083984 85.69335938 C-663.01081459 84.52366928 -665.16134006 83.35500847 -667.3125 82.1875 C-667.3125 81.5275 -667.3125 80.8675 -667.3125 80.1875 C-654.03375621 76.3481352 -640.6776486 73.06941389 -627.1875 70.0625 C-626.14160706 69.82861572 -625.09571411 69.59473145 -624.01812744 69.35375977 C-537.89840843 50.15262112 -450.56974193 36.28106272 -112.0625 2.5 C-110.78486786 2.43906158 -109.50723572 2.37812317 -108.19088745 2.31533813 C-72.12769274 0.61891612 -36.10062158 -0.01948276 0 0 Z " fill="#EA232A" transform="translate(828.3125,841.8125)"/>
<path d="M0 0 C1.22167374 -0.00952698 2.44334747 -0.01905396 3.70204163 -0.02886963 C6.28334748 -0.04102582 8.86474247 -0.04020284 11.44604492 -0.02734375 C15.39334766 -0.01567469 19.3363684 -0.06788869 23.28320312 -0.125 C25.79296574 -0.12888531 28.30273758 -0.12901054 30.8125 -0.125 C31.99077866 -0.14544373 33.16905731 -0.16588745 34.38304138 -0.18695068 C43.52676002 -0.05773205 43.52676002 -0.05773205 47.32641602 3.41308594 C52.8693465 12.06617897 47.76189184 27.62101069 46.33959961 37.24169922 C46.122257 38.73808893 45.90537738 40.23454596 45.68891907 41.73106384 C45.22634045 44.92281613 44.76070579 48.11410127 44.29261589 51.3050499 C43.55174667 56.3566913 42.81883057 61.40946782 42.08705139 66.46243286 C40.26986399 79.0014312 38.44155916 91.53880574 36.61273193 104.07611084 C35.18770488 113.8464489 33.76541053 123.61717018 32.35071093 133.38900959 C31.62393591 138.40693876 30.89178352 143.42404404 30.1554507 148.44057918 C29.6984608 151.56193886 29.24619505 154.68396987 28.79519463 157.80620003 C28.58595086 159.24799489 28.37476953 160.68951017 28.16145706 162.13070869 C25.8438106 174.02919605 25.8438106 174.02919605 27.68486023 185.6672821 C31.1575333 190.14189603 34.26309863 192.81623145 39.93740845 193.60147095 C45.62263106 194.0374597 51.29734223 193.88289585 56.9921875 193.75390625 C59.09964997 193.74498862 61.20713994 193.74121877 63.31462097 193.74235535 C68.8426308 193.73486039 74.36847289 193.67209396 79.89587402 193.59313965 C88.75908489 193.47215435 97.62235085 193.41884513 106.48630333 193.397192 C109.5803354 193.37912148 112.67250557 193.32723089 115.7660675 193.27192688 C117.65759491 193.25802552 119.54913068 193.24520514 121.44067383 193.23364258 C122.30047348 193.20930649 123.16027313 193.1849704 124.04612732 193.15989685 C129.86812448 193.16604265 129.86812448 193.16604265 133.02037048 196.12953186 C134.62320396 199.00439979 134.86512773 200.06874178 134.39453125 203.2734375 C134.26626953 204.23411133 134.13800781 205.19478516 134.00585938 206.18457031 C133.74192383 207.94172363 133.74192383 207.94172363 133.47265625 209.734375 C133.27608551 211.25316855 133.08298429 212.7724135 132.89257812 214.29199219 C132.33848592 218.66061554 131.73347314 223.02040383 131.10839844 227.37939453 C130.84988622 229.20894112 130.59996957 231.03972159 130.35839844 232.87158203 C130.00508733 235.54522339 129.62467151 238.21377599 129.23828125 240.8828125 C129.13598206 241.69744965 129.03368286 242.51208679 128.92828369 243.35140991 C128.81176453 244.11635773 128.69524536 244.88130554 128.57519531 245.66943359 C128.48272522 246.33574799 128.39025513 247.00206238 128.29498291 247.68856812 C126.93102649 251.08185642 125.43554211 252.55575463 122.47265625 254.734375 C118.86980264 255.46501754 115.32794325 255.39699435 111.66235352 255.34960938 C110.57220444 255.35515839 109.48205536 255.3607074 108.35887146 255.36642456 C104.75182218 255.37824119 101.14602423 255.35390929 97.5390625 255.328125 C95.0238399 255.32641329 92.50861551 255.32648019 89.99339294 255.32824707 C84.71493422 255.32659227 79.43679677 255.30845982 74.15844727 255.27636719 C68.09015475 255.2396465 62.02233386 255.23066809 55.95394474 255.2376647 C50.08756299 255.24401838 44.22134382 255.23289922 38.35499382 255.21369934 C35.87413243 255.20671014 33.39325703 255.20353981 30.91238594 255.20439148 C-0.40789656 255.18806619 -0.40789656 255.18806619 -13.65234375 248.234375 C-14.31556641 247.89035645 -14.97878906 247.54633789 -15.66210938 247.19189453 C-28.59031165 240.14608651 -37.85346211 229.60553862 -42.60626411 215.54180622 C-43.59678711 211.44731969 -43.83745198 207.63899889 -43.78805542 203.45610046 C-43.77964546 202.28246981 -43.77964546 202.28246981 -43.77106559 201.08512944 C-43.62501299 192.36666863 -42.53801067 183.8148092 -41.35595703 175.18676758 C-41.12176302 173.41237185 -40.88858899 171.63784126 -40.65634155 169.8631897 C-40.03051913 165.10420901 -39.39028867 160.34727397 -38.74690866 155.59063935 C-38.07265232 150.5888729 -37.41106156 145.58542944 -36.74777222 140.5821991 C-35.63423951 132.19686921 -34.51176945 123.81277561 -33.38330078 115.42944336 C-32.08028046 105.74892305 -30.78917089 96.06687404 -29.50486195 86.38385469 C-28.13276049 76.03954081 -26.75263541 65.69630961 -25.3698287 55.35342193 C-24.97333786 52.38401102 -24.57827536 49.41441293 -24.18350601 46.44477272 C-23.56307955 41.78100254 -22.93722432 37.11799133 -22.30719376 32.45550919 C-22.07724044 30.74775369 -21.84904663 29.03976018 -21.62276459 27.33151436 C-21.31304091 24.99582071 -20.99683289 22.66109235 -20.6789856 20.32649231 C-20.4162746 18.36910488 -20.4162746 18.36910488 -20.1482563 16.37217426 C-19.30637669 11.43977432 -18.38852928 7.08624795 -15.68530273 2.84277344 C-10.7218434 -0.47105994 -5.84240102 -0.01904256 0 0 Z " fill="#EA232A" transform="translate(256.52734375,213.265625)"/>
<path d="M0 0 C1.0866243 -0.00432541 2.1732486 -0.00865082 3.2928009 -0.0131073 C5.5779924 -0.01348713 7.86324573 0.0034789 10.14819336 0.03686523 C13.64546199 0.08204327 17.13744513 0.05755272 20.63476562 0.02539062 C22.86069629 0.03360757 25.08661653 0.04583899 27.3125 0.0625 C28.3552861 0.05349167 29.3980722 0.04448334 30.47245789 0.03520203 C38.52812599 0.2181634 38.52812599 0.2181634 41.65356445 3.3840332 C44.99253845 9.88343853 43.44737902 17.3025587 42.46655273 24.3527832 C42.36061232 25.14939708 42.2546719 25.94601095 42.14552116 26.76676464 C41.79530273 29.38956383 41.43673798 32.01114906 41.078125 34.6328125 C40.82761775 36.4968781 40.57764454 38.36101553 40.32817078 40.22521973 C39.66167494 45.19432733 38.98795592 50.16242867 38.31241608 55.13031387 C37.61429937 60.27026549 36.92137519 65.41091698 36.22802734 70.55151367 C35.40146633 76.67790681 34.57434137 82.80422064 33.74420166 88.93013 C32.2340393 100.08086168 30.74997892 111.234189 29.3125 122.39453125 C16.62579201 220.60844555 16.62579201 220.60844555 -15.23046875 245.64453125 C-30.81853497 256.57616231 -54.87358788 271.18655945 -74.54296875 269.89453125 C-79.4207335 267.72228578 -82.28634299 263.83389983 -84.32470703 259.02246094 C-85.80942206 255.14928662 -87.09560261 251.22000193 -88.32836914 247.26025391 C-89.10859449 244.75951279 -89.92872232 242.27463506 -90.75585938 239.7890625 C-91.27190359 238.19738178 -91.78565788 236.6049564 -92.296875 235.01171875 C-92.6607003 233.90218338 -92.6607003 233.90218338 -93.03187561 232.77023315 C-94.67415681 227.42791349 -94.58055735 224.31917405 -92.41796875 219.265625 C-89.95166113 216.14677349 -87.18609735 215.20254143 -83.54296875 213.95703125 C-82.18306389 213.4488864 -80.82499133 212.93581224 -79.46875 212.41796875 C-78.46642334 212.03656738 -78.46642334 212.03656738 -77.44384766 211.64746094 C-63.28285193 206.03835346 -52.45406334 196.18583234 -46.35546875 182.20703125 C-42.51816148 171.72595719 -41.04557712 160.46242317 -39.484375 149.45703125 C-39.20688164 147.53795456 -39.20688164 147.53795456 -38.92378235 145.58010864 C-38.5227668 142.80528742 -38.12491156 140.03003612 -37.72918701 137.25445557 C-37.20349481 133.57108384 -36.66918734 129.88901928 -36.13237 126.20725441 C-33.57253002 108.63814337 -31.15239151 91.05605135 -28.88571739 73.4466629 C-28.12156178 67.53929681 -27.33947444 61.63427164 -26.55741978 55.72925186 C-25.79519945 49.95523033 -25.06448186 44.17827648 -24.35560513 38.3974781 C-23.90363864 34.77176911 -23.42280865 31.15030493 -22.93431664 27.5293541 C-22.71272668 25.84139267 -22.50319597 24.15179706 -22.30672646 22.46072769 C-20.61804127 8.00983135 -20.61804127 8.00983135 -16.07348633 3.38354492 C-11.04469386 -0.06721653 -5.93212849 -0.09902968 0 0 Z " fill="#EA232A" transform="translate(500.54296875,557.10546875)"/>
<path d="M0 0 C1.17139023 -0.0127597 2.34278046 -0.02551941 3.54966736 -0.03866577 C4.8204866 -0.04089142 6.09130585 -0.04311707 7.40063477 -0.04541016 C8.7002565 -0.05206696 9.99987823 -0.05872375 11.33888245 -0.06558228 C14.09200358 -0.07756542 16.84499915 -0.08126204 19.59814453 -0.08007812 C23.12704041 -0.07987484 26.65513181 -0.10718092 30.18383694 -0.14162254 C33.54778245 -0.16920075 36.91157754 -0.1680397 40.27563477 -0.17041016 C41.54442978 -0.18478119 42.81322479 -0.19915222 44.12046814 -0.21395874 C45.88228172 -0.20472885 45.88228172 -0.20472885 47.6796875 -0.1953125 C49.23283913 -0.19958755 49.23283913 -0.19958755 50.81736755 -0.20394897 C53.40454102 0.29052734 53.40454102 0.29052734 55.30856323 1.80052185 C56.93485512 5.49537389 56.25652343 8.74724325 55.66503906 12.61645508 C55.54452242 13.50061914 55.42400578 14.38478321 55.29983711 15.29574013 C54.87563855 18.3785057 54.42660816 21.45720791 53.97875977 24.53662109 C53.65804176 26.8334489 53.33916953 29.130535 53.02189636 31.42784119 C52.47583119 35.37120672 51.92787298 39.31426696 51.37156773 43.25619984 C49.61967605 55.67177534 47.93206109 68.09565077 46.25463867 80.52148438 C43.5560435 100.49901501 40.82995237 120.47264442 38.08522224 140.44388771 C36.47540448 152.16011267 34.8722088 163.87716926 33.28466797 175.59643555 C31.87882151 185.97439725 30.46124859 196.35067461 29.02912539 206.72504419 C28.2771865 212.17490671 27.53101052 217.62541277 26.79899025 223.07798958 C26.11665404 228.15893439 25.41859811 233.23746505 24.70815849 238.31455421 C24.4507241 240.17461061 24.19909569 242.03548106 23.95366669 243.89715958 C23.61847961 246.43303581 23.26266123 248.96517235 22.90144348 251.49745178 C22.80892313 252.23561963 22.71640278 252.97378747 22.62107879 253.73432404 C21.96336631 258.14751825 21.01892249 260.59275633 17.40454102 263.29052734 C14.78649902 263.80519104 14.78649902 263.80519104 11.78149414 263.82397461 C10.65352417 263.83981094 9.5255542 263.85564728 8.36340332 263.8719635 C7.14979126 263.86700363 5.9361792 263.86204376 4.68579102 263.85693359 C3.43576294 263.86313217 2.18573486 263.86933075 0.89782715 263.87571716 C-1.74552242 263.88282239 -4.38735132 263.88157319 -7.03051758 263.86694336 C-10.4138241 263.84974752 -13.79543355 263.87326023 -17.17855072 263.90843296 C-20.41129061 263.93569943 -23.64388652 263.9256714 -26.87670898 263.91943359 C-28.09032104 263.9326918 -29.30393311 263.94595001 -30.55432129 263.95960999 C-31.68229126 263.94707687 -32.81026123 263.93454376 -33.97241211 263.92163086 C-34.96406372 263.9206691 -35.95571533 263.91970734 -36.97741699 263.91871643 C-40.68906219 263.02812147 -41.60537606 261.50113076 -43.59545898 258.29052734 C-43.69787884 254.92834473 -43.69787884 254.92834473 -43.13005066 251.01123047 C-43.03203128 250.28884186 -42.9340119 249.56645325 -42.83302224 248.82217407 C-42.49940614 246.40184234 -42.13352527 243.98748974 -41.76806641 241.57177734 C-41.52219813 239.83132609 -41.27860628 238.09055195 -41.03711987 236.3494873 C-40.51489908 232.60772071 -39.97999465 228.86806531 -39.43606186 225.12939453 C-38.5957296 219.33097809 -37.80247746 213.52680835 -37.02090454 207.72021484 C-35.46755395 196.19777209 -33.88627882 184.67930747 -32.29840875 173.16157532 C-31.82714124 169.74265339 -31.35633908 166.32366767 -30.88567162 162.90466309 C-29.23847901 150.93990432 -27.58913902 138.97544361 -25.93798828 127.01123047 C-24.40506313 115.90317303 -22.87742814 104.79439608 -21.3520301 93.68530273 C-20.03235146 84.07634788 -18.70878882 74.46793311 -17.38224 64.85992432 C-16.59399534 59.15019131 -15.8073611 53.44024784 -15.02477455 47.72973633 C-14.29292135 42.3902498 -13.55624887 37.05145034 -12.8158493 31.7131424 C-12.54561183 29.75864982 -12.27710404 27.80391718 -12.01046562 25.84893036 C-11.64609551 23.17937483 -11.27546503 20.51075994 -10.90327454 17.84228516 C-10.79967332 17.07217857 -10.6960721 16.30207199 -10.58933145 15.50862885 C-8.40707122 0.06194637 -8.40707122 0.06194637 0 0 Z " fill="#EA232A" transform="translate(751.595458984375,203.70947265625)"/>
<path d="M0 0 C1.77127007 0.00022659 1.77127007 0.00022659 3.57832336 0.00045776 C5.47544319 0.01594162 5.47544319 0.01594162 7.41088867 0.03173828 C9.36462654 0.03598312 9.36462654 0.03598312 11.35783386 0.04031372 C14.80858127 0.04792381 18.2591584 0.06754943 21.70983887 0.08972168 C25.23581642 0.1102369 28.76182167 0.11932754 32.2878418 0.12939453 C39.19741663 0.15079806 46.10687883 0.18490204 53.01635742 0.22705078 C54.00635742 3.19705078 54.99635742 6.16705078 56.01635742 9.22705078 C54.62223633 10.71205078 54.62223633 10.71205078 53.19995117 12.22705078 C44.89854809 21.06867508 44.89854809 21.06867508 36.85229492 30.14111328 C34.29143807 33.05068255 31.65222198 35.88549157 29.01635742 38.72705078 C25.22997402 42.80999656 21.4986844 46.92475088 17.85620117 51.13720703 C15.44965412 53.87075836 12.98323775 56.5481082 10.51635742 59.22705078 C6.81764528 63.24630128 3.12601623 67.26663307 -0.40161133 71.43798828 C-1.98364258 73.22705078 -1.98364258 73.22705078 -3.84692383 74.95361328 C-5.61214595 76.66795317 -6.83867504 78.05048157 -7.98364258 80.22705078 C-7.12425078 87.14506723 -2.78188388 94.06185988 0.26635742 100.22705078 C5.05587571 110.05402401 9.65087852 119.94863165 14.14135742 129.91455078 C19.35996139 141.48515154 24.70559261 152.98880222 30.15750122 164.45135498 C31.31765333 166.89099017 32.47583734 169.33154912 33.63330078 171.77246094 C34.00529099 172.55688568 34.37728119 173.34131042 34.76054382 174.14950562 C35.49211173 175.69231723 36.22364916 177.2351433 36.95515442 178.77798462 C38.56594893 182.17422832 40.17881442 185.5694086 41.80053711 188.96044922 C43.28123461 192.06427065 44.74540235 195.17523359 46.20385742 198.28955078 C46.82804565 199.58155396 46.82804565 199.58155396 47.46484375 200.8996582 C48.9024989 204.00297938 50.0004913 206.40811496 50.06713867 209.84814453 C47.06385109 216.64740899 47.06385109 216.64740899 44.01635742 219.22705078 C40.06678572 220.26122375 36.20775584 220.13721043 32.14526367 220.05126953 C30.99017807 220.05085159 29.83509247 220.05043365 28.64500427 220.05000305 C26.20479098 220.04162905 23.7645849 220.01616923 21.32470703 219.97485352 C17.5952773 219.91481512 13.86924728 219.91327099 10.1394043 219.92041016 C7.76633236 219.90499871 5.39327936 219.88623009 3.02026367 219.86376953 C1.90760635 219.86245529 0.79494904 219.86114105 -0.35142517 219.85978699 C-6.30732464 219.73267719 -10.47952172 219.54835416 -14.98364258 215.22705078 C-16.77197266 212.33081055 -16.77197266 212.33081055 -18.25317383 208.91845703 C-18.5310524 208.29299484 -18.80893097 207.66753265 -19.0952301 207.02311707 C-20.01154473 204.95189964 -20.9032857 202.8709743 -21.79614258 200.78955078 C-22.44663817 199.31047465 -23.09919004 197.83230137 -23.75366211 196.35498047 C-25.13441263 193.23635428 -26.50796867 190.11469725 -27.87768555 186.99121094 C-30.93447047 180.04716049 -34.11751009 173.16141993 -37.29855347 166.27365112 C-38.72578473 163.18166595 -40.1478755 160.08732728 -41.57014465 156.99305725 C-44.47091591 150.68270189 -47.37620738 144.37442976 -50.28260803 138.06666565 C-59.29573027 118.50298054 -68.22438348 98.90586206 -76.98364258 79.22705078 C-73.71683417 74.77855773 -70.43444611 70.46134234 -66.67114258 66.41455078 C-63.58282155 63.03332742 -60.61296999 59.60040707 -57.73364258 56.03955078 C-52.51845742 49.59993085 -47.07032506 43.37249675 -41.63012695 37.12353516 C-39.04726725 34.14849747 -36.48324542 31.15746459 -33.92114258 28.16455078 C-33.43532715 27.59768555 -32.94951172 27.03082031 -32.44897461 26.44677734 C-29.87407256 23.44087578 -27.30500939 20.43013648 -24.74145508 17.41455078 C-24.20657471 16.78685791 -23.67169434 16.15916504 -23.12060547 15.51245117 C-22.10498537 14.32044799 -21.09102446 13.12702819 -20.07910156 11.93188477 C-14.03707897 4.84766318 -9.83668397 -0.04212713 0 0 Z " fill="#EA232A" transform="translate(866.983642578125,278.77294921875)"/>
<path d="M0 0 C1.10690689 -0.00952698 2.21381378 -0.01905396 3.35426331 -0.02886963 C5.69000146 -0.04101012 8.02583804 -0.04021902 10.36157227 -0.02734375 C13.92704555 -0.01567201 17.4877787 -0.06790952 21.05273438 -0.125 C23.3268196 -0.12888546 25.60091499 -0.12901039 27.875 -0.125 C28.93561142 -0.14544373 29.99622284 -0.16588745 31.088974 -0.18695068 C36.13247644 -0.10831441 39.79841413 0.2871148 43.79321289 3.53808594 C45.64381472 5.85990335 46.47783587 7.20095637 46.62418461 10.19535637 C46.46640364 11.5720383 46.46640364 11.5720383 46.30543518 12.97653198 C46.18860728 14.04235252 46.07177938 15.10817307 45.95141125 16.2062912 C45.8037346 17.37055885 45.65605795 18.53482651 45.50390625 19.734375 C45.35531064 20.95320625 45.20671503 22.17203751 45.05361652 23.42780304 C44.52260388 27.64066973 43.96002595 31.84841576 43.39013672 36.05615234 C43.17457014 37.66390632 42.95918742 39.27168496 42.74397278 40.87948608 C40.7899781 55.44317764 38.79393659 70.00129785 36.78797722 84.55791283 C35.30786107 95.30222684 33.84769849 106.04886217 32.41316116 116.79935873 C31.39968307 124.38134291 30.36313864 131.9599613 29.30961335 139.53648341 C28.68212415 144.05398686 28.06500254 148.57234944 27.47295761 153.09464645 C26.91645015 157.34217088 26.33148681 161.5848028 25.72459984 165.82541275 C25.50729539 167.37918587 25.30028906 168.93444041 25.1045208 170.49107361 C23.43387284 183.69614528 23.43387284 183.69614528 19.17878723 187.65942383 C16.09986836 189.69863628 13.54850859 190.48404749 9.81567383 190.47900391 C8.74799271 190.49146149 7.68031158 190.50391907 6.58027649 190.51675415 C5.44776962 190.49833466 4.31526276 190.47991516 3.1484375 190.4609375 C1.9692424 190.46193451 0.7900473 190.46293152 -0.42488098 190.46395874 C-2.90856698 190.45929145 -5.39226367 190.43991777 -7.87573242 190.40673828 C-11.68168318 190.35939876 -15.48484373 190.36564347 -19.29101562 190.37890625 C-21.70704798 190.36775673 -24.12306854 190.3535395 -26.5390625 190.3359375 C-27.67764206 190.33776031 -28.81622162 190.33958313 -29.98930359 190.34146118 C-31.04752823 190.32239716 -32.10575287 190.30333313 -33.19604492 190.28369141 C-34.12535324 190.27447662 -35.05466156 190.26526184 -36.01213074 190.25576782 C-39.45422607 189.53325956 -40.55094047 188.68130099 -42.49609375 185.734375 C-43.34345168 177.38190031 -41.58522237 168.93483979 -40.41650391 160.66137695 C-40.19264078 159.04425998 -39.96930189 157.42707036 -39.7464447 155.80981445 C-39.1425495 151.43943891 -38.5309423 147.07017547 -37.91758776 142.70111871 C-37.27548789 138.12004905 -36.63948978 133.53813163 -36.00253296 128.9563446 C-34.932513 121.26674641 -33.85738259 113.57787552 -32.77929688 105.8894043 C-31.53384076 97.00679105 -30.29691971 88.12302034 -29.06445277 79.23859626 C-27.87686632 70.67940699 -26.68284503 62.12112683 -25.48603439 53.56322289 C-24.97752933 49.9261134 -24.47134864 46.28869169 -23.96706009 42.65099525 C-23.37306606 38.36813291 -22.77345915 34.08609289 -22.16954231 29.80461884 C-21.94908887 28.23516572 -21.73056737 26.66543982 -21.51413918 25.09542656 C-21.2179663 22.94929581 -20.9147507 20.80427252 -20.60977173 18.65937805 C-20.44200541 17.45983144 -20.27423908 16.26028482 -20.10138893 15.02438831 C-19.09757367 9.56826429 -18.09235777 5.16782785 -13.47067261 1.6854248 C-9.24616038 -0.34929846 -4.59913268 -0.01665018 0 0 Z " fill="#EA232A" transform="translate(442.49609375,276.265625)"/>
<path d="M0 0 C0.98136932 -0.02559494 1.96273865 -0.05118988 2.97384644 -0.07756042 C4.55517868 -0.09197929 4.55517868 -0.09197929 6.16845703 -0.10668945 C7.25836945 -0.121418 8.34828186 -0.13614655 9.47122192 -0.15132141 C11.77599072 -0.17526436 14.0808614 -0.190691 16.38574219 -0.19824219 C19.90753222 -0.21985571 23.42496862 -0.30005705 26.94580078 -0.38208008 C29.18666326 -0.39807436 31.42755409 -0.41055986 33.66845703 -0.41918945 C34.71863007 -0.45106857 35.7688031 -0.48294769 36.85079956 -0.51579285 C40.8657331 -0.47888705 43.82533267 -0.43390548 47.12457275 1.99203491 C50.27871219 5.64284688 51.10286194 7.41205912 50.85990906 12.38235474 C49.94929624 18.74633174 48.62767904 25.04147108 47.33911133 31.33740234 C47.05943821 32.71807789 46.78007884 34.09881703 46.50100708 35.47961426 C45.74669786 39.20542234 44.98705216 42.93012129 44.22565818 46.65448737 C43.7493797 48.98467177 43.27399837 51.31503753 42.79886818 53.64545631 C41.30982858 60.94726964 39.8173957 68.24837752 38.32019871 75.54852265 C36.59556347 83.95787661 34.88236931 92.36945535 33.17893285 100.78312844 C31.8582953 107.30247665 30.52745827 113.81969074 29.18890887 120.33538467 C28.39093689 124.22085545 27.59728895 128.10708954 26.81430626 131.99561119 C26.07821333 135.64984412 25.32946944 139.30125806 24.57104874 142.9509201 C24.16454047 144.9231135 23.77116115 146.89799888 23.3782196 148.87294006 C22.00877348 155.39621152 20.87350632 160.6452925 16.05126953 165.4675293 C10.42422107 165.76037306 4.79458456 165.78163666 -0.83935547 165.81762695 C-2.73856883 165.83416723 -4.63772043 165.86143188 -6.53662109 165.8996582 C-9.27327812 165.9544867 -12.00847279 165.97631177 -14.74560547 165.9909668 C-15.59161316 166.01363617 -16.43762085 166.03630554 -17.30926514 166.05966187 C-18.10648987 166.05681183 -18.9037146 166.05396179 -19.72509766 166.05102539 C-20.4215741 166.05911224 -21.11805054 166.0671991 -21.83563232 166.07553101 C-25.53740059 165.01042126 -26.77526026 163.66824267 -28.94873047 160.4675293 C-29.35377672 156.26005245 -28.86381699 152.18508524 -28.40844727 147.99438477 C-28.29596744 146.75339964 -28.18348761 145.51241451 -28.0675993 144.23382378 C-27.8300323 141.6155897 -27.58217697 138.99827133 -27.32470322 136.38191986 C-26.854502 131.48648205 -26.47368474 126.58666902 -26.09856892 121.68318367 C-25.09217164 108.57173477 -23.96609297 95.4691468 -22.84448719 82.36709785 C-22.23363051 75.22388886 -21.63549305 68.0800381 -21.06665039 60.93334961 C-20.56371133 54.6148406 -20.03825863 48.29868644 -19.48537177 41.98434436 C-19.19550729 38.66548951 -18.92000092 35.34699537 -18.66486549 32.02518082 C-18.38023038 28.34530612 -18.05572959 24.67101019 -17.72143555 20.99536133 C-17.64688644 19.9107814 -17.57233734 18.82620148 -17.49552917 17.70875549 C-16.99276463 12.63126197 -16.53767519 9.37822905 -12.5879364 5.93453979 C-11.39069182 5.08933047 -10.17897951 4.26393415 -8.94873047 3.4675293 C-8.24642303 2.85842209 -7.5441156 2.24931488 -6.82052612 1.62174988 C-4.43473445 0.15057975 -2.79278654 0.05664209 0 0 Z " fill="#EA232A" transform="translate(803.94873046875,524.532470703125)"/>
<path d="M0 0 C8.53057202 7.01402588 12.9754354 14.27667984 14.125 25.3125 C13.91572361 35.9623431 8.91422738 45.82216448 1.8125 53.46484375 C-7.76364195 62.64767987 -18.28335049 65.85065692 -31.2890625 65.5859375 C-39.61076605 65.00225088 -46.44180871 62.16434785 -52.46484375 56.3515625 C-58.15839072 49.612262 -60.58391028 42.0935883 -60.1875 33.3125 C-58.65436315 22.05489515 -53.20564002 10.90229058 -44.19140625 3.72265625 C-30.90394749 -5.69601036 -14.56057851 -7.70854157 0 0 Z " fill="#EA232A" transform="translate(817.1875,708.6875)"/>
<path d="M0 0 C6.08862616 6.26258691 9.45239084 13.58828926 9.5625 22.375 C9.32590571 34.60831649 4.61945219 44.40351451 -3.69140625 53.25 C-11.75666906 60.81016554 -21.47303113 65.04659832 -32.53515625 65.31640625 C-41.42008413 64.90402563 -48.66347629 61.94640401 -54.75 55.375 C-61.27934573 47.04392444 -61.90275219 39.75416056 -60.8125 29.25 C-58.05814912 17.90105425 -51.6502789 7.10826083 -41.890625 0.4609375 C-28.26552655 -7.47849957 -13.63979201 -8.4869817 0 0 Z " fill="#EA232A" transform="translate(548.8125,479.75)"/>
<path d="M0 0 C6.69809077 6.3953522 9.89991318 14.12312531 10.4375 23.3125 C9.89398473 36.13040179 3.81525319 46.62023576 -5.25 55.3125 C-14.92823241 63.51326639 -25.59099342 66.00188058 -38 65 C-45.92841549 63.15927696 -52.86387835 58.80871987 -57.34765625 51.93359375 C-61.71995638 43.17332216 -61.74724196 34.2533048 -59.0625 24.9765625 C-54.98376289 13.55010046 -47.87744398 3.8803034 -37.0625 -2 C-24.91648737 -7.35183681 -11.12396692 -7.94027622 0 0 Z " fill="#EA232A" transform="translate(491,199)"/>
</svg>
